<?xml version="1.0" encoding="UTF-8" standalone="no"?>
<!-- Created with Inkscape (http://www.inkscape.org/) -->

<svg
   xmlns:dc="http://purl.org/dc/elements/1.1/"
   xmlns:cc="http://creativecommons.org/ns#"
   xmlns:rdf="http://www.w3.org/1999/02/22-rdf-syntax-ns#"
   xmlns:svg="http://www.w3.org/2000/svg"
   xmlns="http://www.w3.org/2000/svg"
   xmlns:sodipodi="http://sodipodi.sourceforge.net/DTD/sodipodi-0.dtd"
   xmlns:inkscape="http://www.inkscape.org/namespaces/inkscape"
   width="16px"
   height="16px"
   viewBox="0 0 16 16"
   version="1.1"
   id="SVGRoot"
   inkscape:version="0.92.4 (5da689c313, 2019-01-14)"
   sodipodi:docname="favicon.svg">
  <defs
     id="defs33" />
  <sodipodi:namedview
     id="base"
     pagecolor="#ffffff"
     bordercolor="#666666"
     borderopacity="1.0"
     inkscape:pageopacity="0.0"
     inkscape:pageshadow="2"
     inkscape:zoom="32"
     inkscape:cx="27.505596"
     inkscape:cy="7.1359446"
     inkscape:document-units="px"
     inkscape:current-layer="layer1"
     showgrid="false"
     inkscape:window-width="1920"
     inkscape:window-height="1137"
     inkscape:window-x="1912"
     inkscape:window-y="-8"
     inkscape:window-maximized="1"
     inkscape:grid-bbox="true" />
  <metadata
     id="metadata36">
    <rdf:RDF>
      <cc:Work
         rdf:about="">
        <dc:format>image/svg+xml</dc:format>
        <dc:type
           rdf:resource="http://purl.org/dc/dcmitype/StillImage" />
        <dc:title />
      </cc:Work>
    </rdf:RDF>
  </metadata>
  <g
     inkscape:label="Layer 1"
     inkscape:groupmode="layer"
     id="layer1">
    <ellipse
       style="fill:#ffff00;stroke-width:0.36838415"
       id="path15"
       cx="7.0000277"
       cy="8.9594622"
       rx="7.8742051"
       ry="7.8503861"
       transform="matrix(0.99253838,-0.12193263,0.12790432,0.99178651,0,0)"
       inkscape:export-xdpi="1136.1003"
       inkscape:export-ydpi="1136.1003" />
    <path
       style="fill:none;stroke:#000000;stroke-width:1px;stroke-linecap:butt;stroke-linejoin:miter;stroke-opacity:1"
       d="M 2.5625,4 C 2.658261,3.970412 2.6893108,3.935689 2.75,3.875 2.760417,3.864583 2.774662,3.856926 2.78125,3.84375 c 0.00466,-0.00932 -0.00737,-0.023884 0,-0.03125 0.00737,-0.00737 0.021933,0.00466 0.03125,0 0.0083,-0.00415 0.089601,-0.085453 0.09375,-0.09375 0.00466,-0.00932 -0.00737,-0.023884 0,-0.03125 0.00737,-0.00737 0.021933,0.00466 0.03125,0 0.0083,-0.00415 0.089601,-0.085453 0.09375,-0.09375 0.00466,-0.00932 -0.00737,-0.023884 0,-0.03125 0.014731,-0.014731 0.047769,0.014731 0.0625,0 0.00737,-0.00737 -0.00737,-0.023884 0,-0.03125 0.00737,-0.00737 0.023884,0.00737 0.03125,0 C 3.13237,3.52388 3.11763,3.507366 3.125,3.5 3.139731,3.485269 3.168866,3.50932 3.1875,3.5 3.200676,3.49341 3.205574,3.475338 3.21875,3.46875 c 0.018634,-0.00932 0.047769,0.014731 0.0625,0 0.00737,-0.00737 -0.00932,-0.026591 0,-0.03125 0.018634,-0.00932 0.043866,0.00932 0.0625,0 0.00932,-0.00466 -0.00737,-0.023884 0,-0.03125 0.00639,-0.00639 0.08136,0.0062 0.09375,0 C 3.450676,3.39966 3.455574,3.381588 3.46875,3.375 c 0.00932,-0.00466 0.020833,0 0.03125,0 0.010417,0 0.020833,0 0.03125,0 0.073287,0 -0.014731,0.00737 0.0625,-0.03125 0.00932,-0.00466 0.021368,0.00329 0.03125,0 C 3.647097,3.33638 3.665403,3.319866 3.6875,3.3125 3.69738,3.30921 3.709433,3.31716 3.71875,3.3125 3.731926,3.30591 3.736025,3.285909 3.75,3.28125 c 0.019764,-0.00659 0.042736,0.00659 0.0625,0 C 3.826475,3.27659 3.829775,3.254659 3.84375,3.25 3.863514,3.24341 3.886486,3.25659 3.90625,3.25 3.920225,3.24534 3.923208,3.222323 3.9375,3.21875 c 0.030317,-0.00758 0.0625,0 0.09375,0 0.010417,0 0.021933,0.00466 0.03125,0 C 4.075676,3.21216 4.080574,3.194088 4.09375,3.1875 4.112188,3.17828 4.166005,3.19466 4.1875,3.1875 4.209597,3.18013 4.227403,3.161899 4.25,3.15625 c 0.025918,-0.00648 0.1358046,0.010223 0.15625,0 0.00932,-0.00466 -0.00737,-0.023884 0,-0.03125 0.00737,-0.00737 0.020833,0 0.03125,0 0.010417,0 0.020833,0 0.03125,0 0.083333,0 0.1666667,0 0.25,0 0.0625,0 0.125,0 0.1875,0 0.010417,0 0.023884,-0.00737 0.03125,0 0.00737,0.00737 -0.00737,0.023884 0,0.03125 0.014731,0.014731 0.043866,-0.00932 0.0625,0 0.013176,0.00659 0.018074,0.024662 0.03125,0.03125 0.018634,0.00932 0.047769,-0.014731 0.0625,0 0.00737,0.00737 -0.00737,0.023884 0,0.03125 0.014731,0.014731 0.047769,-0.014731 0.0625,0 0.00737,0.00737 -0.00737,0.023884 0,0.03125 0.00737,0.00737 0.021933,-0.00466 0.03125,0 0.026352,0.013176 0.036148,0.049324 0.0625,0.0625 0.018634,0.00932 0.047769,-0.014731 0.0625,0 0.00737,0.00737 -0.00737,0.023884 0,0.03125 0.014731,0.014731 0.047769,-0.014731 0.0625,0 0.00737,0.00737 -0.00737,0.023884 0,0.03125 0.00737,0.00737 0.023884,-0.00737 0.03125,0 0.064657,0.064657 -0.098805,-0.00253 0.03125,0.0625 0.018634,0.00932 0.047769,-0.014731 0.0625,0 0.00737,0.00737 -0.00737,0.023884 0,0.03125 0.00737,0.00737 0.023884,-0.00737 0.03125,0 0.00737,0.00737 -0.00737,0.023884 0,0.03125 0.00737,0.00737 0.023884,-0.00737 0.03125,0 0.064657,0.064657 -0.098805,-0.00253 0.03125,0.0625 0.00932,0.00466 0.023884,-0.00737 0.03125,0 0.00737,0.00737 -0.00737,0.023884 0,0.03125 0.00737,0.00737 0.023884,-0.00737 0.03125,0 0.014731,0.014731 -0.00932,0.043866 0,0.0625 0.013176,0.026352 0.049324,0.036148 0.0625,0.0625 0.00466,0.00932 -0.00737,0.023884 0,0.03125 C 5.72612,3.75737 5.740683,3.74534 5.75,3.75 5.819096,3.784548 5.7597,3.769395 5.78125,3.8125 5.85276,3.955519 5.768298,3.6798932 5.84375,3.90625 5.8478,3.91841 5.8389,3.99515 5.84375,4 5.85112,4.00737 5.867634,3.99263 5.875,4 c 0.014731,0.014731 -0.00932,0.043866 0,0.0625 0.00659,0.013176 0.024662,0.018074 0.03125,0.03125 0.0125,0.025 -0.0125,0.06875 0,0.09375 0.00659,0.013176 0.024662,0.018074 0.03125,0.03125 0.00932,0.018634 -0.014731,0.047769 0,0.0625 0.00737,0.00737 0.023884,-0.00737 0.03125,0 0.00737,0.00737 0,0.020833 0,0.03125 0,0.010417 0,0.020833 0,0.03125 0,0.1041667 0,0.2083333 0,0.3125 0,0.052083 0,0.1041667 0,0.15625 0,0.010417 0,0.020833 0,0.03125 0,0.010417 0.00466,0.021933 0,0.03125 -0.00659,0.013176 -0.024662,0.018074 -0.03125,0.03125 -0.00932,0.018634 0.00932,0.043866 0,0.0625 C 5.93091,4.981926 5.912838,4.986824 5.90625,5 c -0.00932,0.018634 0.00932,0.043866 0,0.0625 C 5.89966,5.075676 5.883172,5.081493 5.875,5.09375 5.849159,5.132511 5.838341,5.179989 5.8125,5.21875 5.796157,5.243265 5.766343,5.256735 5.75,5.28125 5.74612,5.28707 5.689502,5.4042475 5.6875,5.40625 c -0.00737,0.00737 -0.023884,-0.00737 -0.03125,0 -0.00737,0.00737 0.00466,0.021933 0,0.03125 C 5.64966,5.450676 5.631588,5.455574 5.625,5.46875 5.62034,5.47807 5.63237,5.492634 5.625,5.5 5.61763,5.50737 5.601116,5.49263 5.59375,5.5 c -0.014731,0.014731 0.014731,0.047769 0,0.0625 -0.064657,0.064657 0.00253,-0.098805 -0.0625,0.03125 -0.00932,0.018634 0.014731,0.047769 0,0.0625 -0.00737,0.00737 -0.023884,-0.00737 -0.03125,0 -0.014731,0.014731 0.014731,0.047769 0,0.0625 -0.00737,0.00737 -0.023884,-0.00737 -0.03125,0 -0.00737,0.00737 0.00737,0.023884 0,0.03125 -0.064657,0.064657 0.00253,-0.098805 -0.0625,0.03125 -0.00466,0.00932 0.00466,0.021933 0,0.03125 C 5.39966,5.825676 5.381588,5.830574 5.375,5.84375 c -0.00466,0.00932 0.00737,0.023884 0,0.03125 -0.00737,0.00737 -0.023884,-0.00737 -0.03125,0 -0.00737,0.00737 0.00932,0.026592 0,0.03125 -0.018634,0.00932 -0.047769,-0.014731 -0.0625,0 -0.014731,0.014731 0.00932,0.043866 0,0.0625 C 5.27659,5.97807 5.259317,5.96409 5.25,5.96875 5.236824,5.97534 5.229167,5.989583 5.21875,6 5.208333,6.010417 5.194088,6.018074 5.1875,6.03125 5.18284,6.04057 5.19216,6.053183 5.1875,6.0625 5.18091,6.075676 5.166667,6.083333 5.15625,6.09375 5.145833,6.104167 5.138176,6.118412 5.125,6.125 5.11568,6.12966 5.103067,6.12034 5.09375,6.125 5.067398,6.138176 5.057602,6.174324 5.03125,6.1875 5.02193,6.19216 5.007366,6.18013 5,6.1875 4.98353,6.20397 4.98522,6.23353 4.96875,6.25 4.95228,6.26647 4.92563,6.26833 4.90625,6.28125 4.893993,6.28942 4.888176,6.305912 4.875,6.3125 4.86568,6.31716 4.853067,6.30784 4.84375,6.3125 4.830574,6.31909 4.824757,6.335578 4.8125,6.34375 4.79312,6.35667 4.76938,6.36208 4.75,6.375 4.737743,6.38317 4.731926,6.399662 4.71875,6.40625 4.70943,6.41091 4.696817,6.40159 4.6875,6.40625 4.674324,6.41284 4.669426,6.430912 4.65625,6.4375 4.64693,6.44216 4.634882,6.43421 4.625,6.4375 4.3986432,6.512952 4.674269,6.42849 4.53125,6.5 4.52193,6.50466 4.509882,6.49671 4.5,6.5 4.443243,6.518919 4.442005,6.526745 4.40625,6.5625 4.395833,6.572917 4.388975,6.589092 4.375,6.59375 4.355236,6.60034 4.332264,6.58716 4.3125,6.59375 4.298525,6.59841 4.293507,6.616828 4.28125,6.625 4.265513,6.693849 4.216963,6.641519 4.1875,6.65625 4.174324,6.66284 4.170225,6.682842 4.15625,6.6875 4.126604,6.69738 4.092146,6.67762 4.0625,6.6875 4.040403,6.69487 4.022097,6.711384 4,6.71875 3.99012,6.72204 3.978067,6.71409 3.96875,6.71875 3.955574,6.72534 3.951475,6.745342 3.9375,6.75 3.917736,6.75659 3.894764,6.74341 3.875,6.75 3.847049,6.75932 3.840451,6.803183 3.8125,6.8125 3.782854,6.82238 3.748396,6.80262 3.71875,6.8125 3.696653,6.81987 3.678347,6.836384 3.65625,6.84375 3.64637,6.84704 3.634317,6.83909 3.625,6.84375 3.611824,6.85034 3.607725,6.870342 3.59375,6.875 3.579457,6.87976 3.4826555,6.86805 3.46875,6.875 3.455574,6.88159 3.444088,6.893074 3.4375,6.90625 3.43284,6.91557 3.44682,6.932842 3.4375,6.9375 3.418278,6.94711 3.3011887,6.92753 3.28125,6.9375 3.268074,6.94409 3.263176,6.962162 3.25,6.96875 3.24068,6.97341 3.228067,6.96409 3.21875,6.96875 3.2055738,6.9753381 3.2006762,6.9934119 3.1875,7 3.169062,7.00922 3.115245,6.99284 3.09375,7 3.071653,7.00737 3.053347,7.023884 3.03125,7.03125 3.02137,7.03454 3.009317,7.02659 3,7.03125 2.904701,7.078899 3.057155,7.056024 2.90625,7.09375 c -0.020211,0.00505 -0.041667,0 -0.0625,0 -0.010417,0 -0.021933,-0.00466 -0.03125,0 -0.026352,0.013176 -0.036148,0.049324 -0.0625,0.0625 -0.00932,0.00466 -0.020833,0 -0.03125,0 -0.010417,0 -0.020833,0 -0.03125,0 -0.010417,0 -0.020833,0 -0.03125,0 -0.010417,0 -0.023884,-0.00737 -0.03125,0 -0.00737,0.00737 0.00737,0.023884 0,0.03125 -0.00737,0.00737 -0.03125,0.010417 -0.03125,0 0,-0.020833 0.047769,0.014731 0.0625,0 C 2.720907,7.122843 2.557445,7.19003 2.6875,7.125 c 0.018634,-0.00932 0.047769,0.014731 0.0625,0 0.00737,-0.00737 -0.00737,-0.023884 0,-0.03125 0.00737,-0.00737 0.023884,0.00737 0.03125,0 0.00737,-0.00737 -0.00737,-0.023884 0,-0.03125 0.014731,-0.014731 0.043866,0.00932 0.0625,0 C 2.8701023,7.0493238 2.8798977,7.0131762 2.90625,7 2.93125,6.9875 2.975,7.0125 3,7 3.00932,6.99534 2.99263,6.976116 3,6.96875 c 0.014731,-0.014731 0.043866,0.00932 0.0625,0 0.013176,-0.00659 0.018074,-0.024662 0.03125,-0.03125 0.00932,-0.00466 0.023884,0.00737 0.03125,0 0.00737,-0.00737 -0.00932,-0.026592 0,-0.03125 0.025,-0.0125 0.06875,0.0125 0.09375,0 C 3.231926,6.89966 3.236824,6.881588 3.25,6.875 c 0.01239,-0.0062 0.087361,0.00639 0.09375,0 0.00737,-0.00737 -0.00932,-0.026592 0,-0.03125 0.018634,-0.00932 0.042289,0.00505 0.0625,0 0.022597,-0.00565 0.039903,-0.025601 0.0625,-0.03125 0.027569,-0.00689 0.098229,0.00892 0.125,0 0.022097,-0.00737 0.040403,-0.023884 0.0625,-0.03125 0.00988,-0.00329 0.021368,0.00329 0.03125,0 C 3.709597,6.77388 3.727903,6.757366 3.75,6.75 c 0.019764,-0.00659 0.041667,0 0.0625,0 0.03125,0 0.0625,0 0.09375,0 0.010417,0 0.021933,0.00466 0.03125,0 0.013176,-0.00659 0.017275,-0.026592 0.03125,-0.03125 0.042669,-0.014223 0.1448315,0.014223 0.1875,0 C 4.170225,6.71409 4.174324,6.694088 4.1875,6.6875 c 0.015187,-0.00759 0.2093833,0 0.25,0 0.21875,0 0.4375,0 0.65625,0 0.2291667,0 0.4583333,0 0.6875,0 0.072917,0 0.1458333,0 0.21875,0 0.020833,0 0.041667,0 0.0625,0 0.020833,0 0.042289,-0.00505 0.0625,0 C 6.147597,6.69315 6.166667,6.708333 6.1875,6.71875 6.208333,6.729167 6.229167,6.739583 6.25,6.75 c 0.041667,0.020833 0.086239,0.036659 0.125,0.0625 0.012257,0.00817 0.017275,0.026592 0.03125,0.03125 0.019764,0.00659 0.042736,-0.00659 0.0625,0 C 6.482725,6.84841 6.486824,6.868412 6.5,6.875 c 0.00932,0.00466 0.021933,-0.00466 0.03125,0 0.026352,0.013176 0.034549,0.053183 0.0625,0.0625 0.019764,0.00659 0.042736,-0.00659 0.0625,0 0.027951,0.00932 0.037985,0.046157 0.0625,0.0625 0.00582,0.00388 0.1229975,0.060498 0.125,0.0625 0.00737,0.00737 -0.00737,0.023884 0,0.03125 0.00737,0.00737 0.021933,-0.00466 0.03125,0 0.013176,0.00659 0.018074,0.024662 0.03125,0.03125 0.00932,0.00466 0.023884,-0.00737 0.03125,0 0.00737,0.00737 -0.00737,0.023884 0,0.03125 0.00737,0.00737 0.023884,-0.00737 0.03125,0 0.00737,0.00737 -0.00737,0.023884 0,0.03125 0.01647,0.01647 0.04312,0.01833 0.0625,0.03125 C 7.043507,7.22692 7.052083,7.239583 7.0625,7.25 7.072917,7.260417 7.084911,7.269465 7.09375,7.28125 7.116285,7.311296 7.129693,7.348443 7.15625,7.375 c 0.00737,0.00737 0.022583,-0.00578 0.03125,0 0.060096,0.040064 0.096154,0.1161859 0.15625,0.15625 0.00867,0.00578 0.023884,-0.00737 0.03125,0 0.00737,0.00737 -0.00737,0.023884 0,0.03125 0.01647,0.01647 0.04603,0.01478 0.0625,0.03125 0.00737,0.00737 -0.00737,0.023884 0,0.03125 0.00737,0.00737 0.021933,-0.00466 0.03125,0 0.026352,0.013176 0.036148,0.049324 0.0625,0.0625 0.00932,0.00466 0.021933,-0.00466 0.03125,0 0.069096,0.034548 0.0097,0.019395 0.03125,0.0625 0.028766,0.057532 0.064984,0.00497 0.09375,0.0625 0.00466,0.00932 -0.00466,0.021933 0,0.03125 0.00659,0.013176 0.024662,0.018074 0.03125,0.03125 0.00466,0.00932 -0.00737,0.023884 0,0.03125 0.00737,0.00737 0.023884,-0.00737 0.03125,0 0.01647,0.01647 0.01478,0.04603 0.03125,0.0625 0.00737,0.00737 0.023884,-0.00737 0.03125,0 C 7.81987,7.97612 7.80784,7.990683 7.8125,8 7.825676,8.026352 7.861824,8.036148 7.875,8.0625 7.87966,8.07182 7.87034,8.084433 7.875,8.09375 7.88159,8.106926 7.898078,8.112743 7.90625,8.125 7.91917,8.14438 7.92103,8.17103 7.9375,8.1875 7.95397,8.20397 7.98708,8.19937 8,8.21875 8.011556,8.236084 7.99341,8.261486 8,8.28125 8.00466,8.295225 8.023079,8.300243 8.03125,8.3125 8.100099,8.328237 8.047769,8.376787 8.0625,8.40625 c 0.013176,0.026352 0.049324,0.036148 0.0625,0.0625 0.00932,0.018634 -0.011556,0.045166 0,0.0625 0.016343,0.024515 0.046157,0.037985 0.0625,0.0625 0.00456,0.00683 -0.00279,0.145104 0,0.15625 0.00565,0.022597 0.023884,0.040403 0.03125,0.0625 0.00329,0.00988 -0.00329,0.021368 0,0.03125 0.00737,0.022097 0.023884,0.040403 0.03125,0.0625 0.00659,0.019764 -0.00659,0.042736 0,0.0625 0.075452,0.2263568 -0.00901,-0.049269 0.0625,0.09375 0.00466,0.00932 0,0.020833 0,0.03125 0,0.010417 0,0.020833 0,0.03125 0,0.083333 0,0.1666667 0,0.25 0,0.025157 -0.00654,0.1053858 0,0.125 0.00737,0.022097 0.023884,0.040403 0.03125,0.0625 0.00621,0.018633 0,0.1572229 0,0.1875 0,0.014074 0.00476,0.08424 0,0.09375 C 8.33716,9.856926 8.319088,9.861824 8.3125,9.875 8.30784,9.88432 8.31716,9.896933 8.3125,9.90625 8.30591,9.919426 8.285908,9.923525 8.28125,9.9375 8.27466,9.957264 8.29057,9.981366 8.28125,10 8.27659,10.0093 8.257366,9.99263 8.25,10 c -0.014731,0.01473 0.00932,0.04387 0,0.0625 -0.071509,0.143019 0.012952,-0.1326068 -0.0625,0.09375 -0.00329,0.0099 0,0.02083 0,0.03125 -0.010417,0.01042 -0.024662,0.01807 -0.03125,0.03125 -0.00466,0.0093 0.00466,0.02193 0,0.03125 -0.00659,0.01318 -0.018074,0.02466 -0.03125,0.03125 -0.00932,0.0047 -0.026592,-0.0093 -0.03125,0 -0.00932,0.01863 0.00932,0.04387 0,0.0625 -0.00466,0.0093 -0.023884,-0.0074 -0.03125,0 -0.00737,0.0074 0.00737,0.02388 0,0.03125 C 8.04603,10.39147 8.01938,10.39333 8,10.40625 c -0.012257,0.0082 -0.018993,0.02308 -0.03125,0.03125 -0.01938,0.01292 -0.04603,0.01478 -0.0625,0.03125 -0.00737,0.0074 0,0.02083 0,0.03125 C 7.895833,10.51042 7.887257,10.52308 7.875,10.53125 7.859263,10.6001 7.810713,10.54777 7.78125,10.5625 7.768074,10.5691 7.762257,10.58558 7.75,10.59375 7.729167,10.60417 7.708333,10.61458 7.6875,10.625 c 0,0.01042 0.00737,0.02388 0,0.03125 C 7.5655395,10.77821 7.670717,10.64905 7.59375,10.6875 7.580574,10.6941 7.574757,10.71058 7.5625,10.71875 7.4046311,10.823996 7.561776,10.718991 7.46875,10.75 7.3554597,10.78776 7.44651,10.76483 7.375,10.8125 7.35562,10.82542 7.333333,10.83333 7.3125,10.84375 7.291667,10.85417 7.272097,10.86763 7.25,10.875 c -0.00988,0.0033 -0.022583,-0.0058 -0.03125,0 -0.024515,0.01634 -0.037985,0.04616 -0.0625,0.0625 -0.00867,0.0058 -0.021368,-0.0033 -0.03125,0 C 7.0808058,10.952231 7.0441942,10.985269 7,11 6.99012,11.0033 6.978067,10.9953 6.96875,11 6.955574,11.0066 6.950676,11.02466 6.9375,11.03125 c -0.00932,0.0047 -0.021368,-0.0033 -0.03125,0 -0.022097,0.0074 -0.040403,0.02388 -0.0625,0.03125 -0.019764,0.0066 -0.043866,-0.0093 -0.0625,0 -0.013176,0.0066 -0.018074,0.02466 -0.03125,0.03125 -0.00932,0.0047 -0.021368,-0.0033 -0.03125,0 -0.022097,0.0074 -0.040403,0.02388 -0.0625,0.03125 -0.029646,0.0099 -0.064104,-0.0099 -0.09375,0 -0.027951,0.0093 -0.033917,0.05535 -0.0625,0.0625 -0.030317,0.0076 -0.0625,0 -0.09375,0 -0.010417,0 -0.021933,-0.0047 -0.03125,0 -0.013176,0.0066 -0.017275,0.02659 -0.03125,0.03125 -1.416e-4,4.7e-5 -0.09372,-3e-5 -0.09375,0 -0.00737,0.0074 0.00932,0.02659 0,0.03125 -0.00901,0.0045 -0.1675274,0 -0.1875,0 -0.125,0 -0.25,0 -0.375,0 -0.34375,0 -0.6875,0 -1.03125,0 -0.2395833,0 -0.4791667,0 -0.71875,0 -0.09375,0 -0.1875,0 -0.28125,0 -0.020833,0 -0.041667,0 -0.0625,0 -0.020833,0 -0.042736,0.0066 -0.0625,0 C 3.517275,11.2453 3.513176,11.22534 3.5,11.21875 c -0.01794,-0.009 -0.1296496,0.0067 -0.15625,0 C 3.29482,11.20652 3.2025537,11.13426 3.15625,11.125 3.125607,11.1189 3.092817,11.1326 3.0625,11.125 3.048208,11.1214 3.043507,11.10192 3.03125,11.09375 3.01187,11.08083 2.991347,11.06815 2.96875,11.0625 c -0.020211,-0.0051 -0.042736,0.0066 -0.0625,0 C 2.8556874,11.045646 2.8965068,11 2.8125,11"
       id="path32"
       inkscape:connector-curvature="0" />
    <path
       style="fill:none;stroke:#000000;stroke-width:1px;stroke-linecap:butt;stroke-linejoin:miter;stroke-opacity:1"
       d="M 7.6875,2.75 C 7.5597557,3.1323657 7.7995558,2.830806 7.84375,2.875 7.9657105,2.9969605 7.83652,2.891783 7.875,2.96875 7.88159,2.981926 7.898078,2.987743 7.90625,3 7.91917,3.01938 7.92458,3.04312 7.9375,3.0625 c 0.00817,0.012257 0.026592,0.017275 0.03125,0.03125 0.00659,0.019764 -0.00659,0.042736 0,0.0625 C 7.97341,3.170225 7.993412,3.174324 8,3.1875 8.00932,3.206134 7.99341,3.230236 8,3.25 c 0.025263,0.075788 0.075497,0.083238 0.09375,0.15625 0.0044,0.017604 -0.00483,0.1177622 0,0.125 0.01292,0.01938 0.052083,0.010417 0.0625,0.03125 0.013975,0.027951 -0.00613,0.063107 0,0.09375 C 8.16082,3.67909 8.177083,3.697917 8.1875,3.71875 8.215278,3.774306 8.237128,3.81064 8.25,3.875 8.25409,3.895429 8.24495,3.917289 8.25,3.9375 8.25565,3.960097 8.272599,3.978374 8.28125,4 8.293484,4.030584 8.300266,4.063166 8.3125,4.09375 8.32115,4.115376 8.338101,4.133653 8.34375,4.15625 8.379505,4.299269 8.280629,4.123757 8.375,4.3125 c 0.00659,0.013176 0.020833,0.020833 0.03125,0.03125 0.010417,0.041667 0.017668,0.084255 0.03125,0.125 0.014731,0.044194 0.041667,0.083333 0.0625,0.125 0.010417,0.020833 0.025601,0.039903 0.03125,0.0625 0.00505,0.020211 -0.00774,0.043157 0,0.0625 C 8.543871,4.750304 8.6159,4.829499 8.625,4.875 c 0.00613,0.030643 -0.00988,0.064104 0,0.09375 0.011877,0.03563 0.043177,0.061544 0.0625,0.09375 0.043972,0.073287 0.026726,0.066815 0.0625,0.15625 0.00865,0.021626 0.020833,0.041667 0.03125,0.0625 0.03125,0.0625 0.0625,0.125 0.09375,0.1875 0.010417,0.020833 0.025601,0.039903 0.03125,0.0625 0.00505,0.020211 -0.00774,0.043157 0,0.0625 C 8.9286539,5.6497597 8.984833,5.689332 9,5.75 9.00505,5.770211 8.99591,5.792071 9,5.8125 9.00646,5.844801 9.020833,5.875 9.03125,5.90625 9.0416667,5.9375 9.0502662,5.9694156 9.0625,6 c 0.00865,0.021626 0.026682,0.03966 0.03125,0.0625 0.00613,0.030643 -0.00613,0.063107 0,0.09375 0.00457,0.02284 0.022599,0.040874 0.03125,0.0625 0.073084,0.016263 0.019063,0.088438 0.03125,0.125 0.00737,0.022097 0.025601,0.039903 0.03125,0.0625 0.00505,0.020211 -0.00774,0.043157 0,0.0625 0.013949,0.034872 0.045704,0.060157 0.0625,0.09375 0.00466,0.00932 0,0.020833 0,0.03125 0,0.020833 -0.00659,0.042736 0,0.0625 0.00466,0.013975 0.027677,0.016959 0.03125,0.03125 0.00758,0.030317 -0.00613,0.063107 0,0.09375 0.00457,0.02284 0.025601,0.039903 0.03125,0.0625 0.00505,0.020211 -0.00409,0.042071 0,0.0625 C 9.31896,6.938551 9.33729,6.967699 9.34375,7 c 0.00409,0.020429 0,0.041667 0,0.0625 0,0.0625 0,0.125 0,0.1875 0,0.03125 -0.00613,0.063107 0,0.09375 C 9.34832,7.36659 9.366349,7.384624 9.375,7.40625 9.387234,7.436834 9.397201,7.468327 9.40625,7.5 9.474234,7.554547 9.422132,7.6260297 9.4375,7.6875 9.44315,7.710097 9.463101,7.727403 9.46875,7.75 c 0.00505,0.020211 -0.00659,0.042736 0,0.0625 0.00466,0.013975 0.027677,0.016959 0.03125,0.03125 0.00822,0.032888 0,0.1426433 0,0.1875 0,0.1583607 -0.00932,-0.037268 0.03125,0.125 0.012153,0.048612 -0.00983,0.1070933 0,0.15625 -0.00717,0.062754 0.048895,0.1018294 0.0625,0.15625 0.00505,0.020211 0,0.041667 0,0.0625 0,0.041667 -0.00685,0.0839 0,0.125 0.00766,0.045951 0.051201,0.079806 0.0625,0.125 0.010106,0.040423 -0.010106,0.084577 0,0.125 0.00565,0.022597 0.026682,0.03966 0.03125,0.0625 0.00208,0.010378 -0.00549,0.2077647 0,0.21875 0.00659,0.013176 0.026592,0.017275 0.03125,0.03125 0.00659,0.019764 0,0.041667 0,0.0625 0,0.020833 0,0.041667 0,0.0625 0,0.083333 0,0.1666667 0,0.25 0,0.052083 0,0.1041667 0,0.15625 0,0.020833 0.00659,0.042736 0,0.0625 -0.00466,0.013975 -0.026592,0.017275 -0.03125,0.03125 -0.00988,0.029646 0,0.0625 0,0.09375 0,0.052083 0,0.104167 0,0.15625 0,0.02083 0.00659,0.04274 0,0.0625 -0.00737,0.0221 -0.025601,0.0399 -0.03125,0.0625 -0.00758,0.03032 0.00988,0.0641 0,0.09375 -0.00737,0.0221 -0.026682,0.03966 -0.03125,0.0625 -0.00613,0.03064 0.00758,0.06343 0,0.09375 -0.00357,0.01429 -0.026592,0.01727 -0.03125,0.03125 -0.00659,0.01976 0.00659,0.04274 0,0.0625 -0.00466,0.01398 -0.027677,0.01696 -0.03125,0.03125 -0.00458,0.01833 0.00766,0.172186 0,0.1875 -0.00659,0.01318 -0.018074,0.02466 -0.03125,0.03125 -0.00932,0.0047 -0.026592,-0.0093 -0.03125,0 -0.00932,0.01863 0.00932,0.04387 0,0.0625 -0.00466,0.0093 -0.023884,-0.0074 -0.03125,0 -0.00737,0.0074 0.00329,0.02137 0,0.03125 -0.00737,0.0221 -0.023884,0.0404 -0.03125,0.0625 -0.00329,0.0099 0.00329,0.02137 0,0.03125 -0.00737,0.0221 -0.023884,0.0404 -0.03125,0.0625 -0.00329,0.0099 0.00329,0.02137 0,0.03125 -0.075452,0.226357 0.00901,-0.04927 -0.0625,0.09375 -0.0062,0.01239 0.00639,0.08736 0,0.09375 -0.00737,0.0074 -0.023884,-0.0074 -0.03125,0 -0.015625,0.01563 0.015625,0.07813 0,0.09375 -0.00737,0.0074 -0.023884,-0.0074 -0.03125,0 -0.00737,0.0074 0.00466,0.02193 0,0.03125 -0.00659,0.01318 -0.024662,0.01807 -0.03125,0.03125 -0.00932,0.01863 0.014731,0.04777 0,0.0625 -0.00737,0.0074 -0.023884,-0.0074 -0.03125,0 -0.00737,0.0074 0,0.02083 0,0.03125 0,0.01042 0,0.02083 0,0.03125"
       id="path34"
       inkscape:connector-curvature="0" />
    <path
       style="fill:none;stroke:#000000;stroke-width:1px;stroke-linecap:butt;stroke-linejoin:miter;stroke-opacity:1"
       d="m 7.6875,2.75 c 0.15625,0.03125 0.3106361,0.073986 0.46875,0.09375 0.029235,0.00365 0.034549,-0.053183 0.0625,-0.0625 0.019764,-0.00659 0.042736,0.00659 0.0625,0 C 8.295225,2.77659 8.298525,2.754659 8.3125,2.75 8.332264,2.74341 8.355236,2.75659 8.375,2.75 8.402951,2.74068 8.411148,2.700676 8.4375,2.6875 c 0.025,-0.0125 0.06875,0.0125 0.09375,0 0.00932,-0.00466 -0.00737,-0.023884 0,-0.03125 0.00737,-0.00737 0.021933,0.00466 0.03125,0 C 8.575676,2.64966 8.580574,2.631588 8.59375,2.625 8.60307,2.62034 8.615683,2.62966 8.625,2.625 8.638176,2.61841 8.643074,2.600338 8.65625,2.59375 c 0.00932,-0.00466 0.021933,0.00466 0.03125,0 0.013176,-0.00659 0.018074,-0.024662 0.03125,-0.03125 0.018634,-0.00932 0.043866,0.00932 0.0625,0 0.013176,-0.00659 0.018074,-0.024662 0.03125,-0.03125 0.00932,-0.00466 0.023884,0.00737 0.03125,0 0.00737,-0.00737 -0.00932,-0.026591 0,-0.03125 0.018634,-0.00932 0.042289,0.00505 0.0625,0 0.022597,-0.00565 0.040403,-0.023884 0.0625,-0.03125 0.019764,-0.00659 0.043866,0.00932 0.0625,0 C 9.044426,2.46216 9.049324,2.444088 9.0625,2.4375 9.2512426,2.343129 9.075731,2.442 9.21875,2.40625 9.241347,2.4006 9.258653,2.380649 9.28125,2.375 c 0.040423,-0.010106 0.084143,0.00817 0.125,0 C 9.438551,2.36854 9.467699,2.35021 9.5,2.34375 c 0.020429,-0.00409 0.041667,0 0.0625,0 0.0625,0 0.125,0 0.1875,0 0.125,0 0.25,0 0.375,0 0.145833,0 0.291667,0 0.4375,0 0.05208,0 0.104167,0 0.15625,0 0.02083,0 0.04207,-0.00409 0.0625,0 0.0323,0.00646 0.06179,0.023261 0.09375,0.03125 0.01011,0.00253 0.02114,-0.00253 0.03125,0 0.06391,0.015978 0.122899,0.04958 0.1875,0.0625 0.02043,0.00409 0.04316,-0.00774 0.0625,0 0.03487,0.013949 0.05923,0.047705 0.09375,0.0625 0.03948,0.016918 0.0837,0.019451 0.125,0.03125 0.06335,0.018099 0.125,0.041667 0.1875,0.0625 0.03125,0.010417 0.06317,0.019016 0.09375,0.03125 0.06387,0.025549 0.125946,0.062973 0.1875,0.09375 0.02083,0.010417 0.0404,0.023884 0.0625,0.03125 0.0099,0.00329 0.02137,-0.00329 0.03125,0 0.0221,0.00737 0.04312,0.01833 0.0625,0.03125 0.01226,0.00817 0.01727,0.026591 0.03125,0.03125 0.110885,0.036962 0.01581,-0.050641 0.125,0.03125 0.02357,0.017678 0.03724,0.047341 0.0625,0.0625 0.02825,0.016948 0.06317,0.019016 0.09375,0.03125 0.02163,0.00865 0.04167,0.020833 0.0625,0.03125 0.04167,0.020833 0.08455,0.039388 0.125,0.0625 0.0041,0.00234 0.18602,0.1244079 0.1875,0.125 0.01934,0.00774 0.04316,-0.00774 0.0625,0 0.03487,0.013949 0.06016,0.045704 0.09375,0.0625 0.0093,0.00466 0.02258,-0.00578 0.03125,0 0.03983,0.026554 0.117871,0.1370605 0.15625,0.15625 0.01863,0.00932 0.04517,-0.011556 0.0625,0 0.01938,0.01292 0.01187,0.04958 0.03125,0.0625 0.01733,0.011556 0.04517,-0.011556 0.0625,0 0.01938,0.01292 0.01478,0.04603 0.03125,0.0625 0.0074,0.00737 0.02388,-0.00737 0.03125,0 0.01647,0.01647 0.01833,0.04312 0.03125,0.0625 0.01634,0.024514 0.04167,0.041667 0.0625,0.0625 0.03125,0.03125 0.0625,0.0625 0.09375,0.09375 0.01042,0.010417 0.02659,0.017275 0.03125,0.03125 0.0066,0.019764 -0.01156,0.045166 0,0.0625 0.01292,0.01938 0.04603,0.01478 0.0625,0.03125 0.06466,0.064657 -0.09881,-0.00253 0.03125,0.0625 0.0093,0.00466 0.02659,-0.00932 0.03125,0 0.0093,0.018634 -0.0066,0.042736 0,0.0625 0.0093,0.027951 0.04932,0.036148 0.0625,0.0625 0.0047,0.00932 -0.0047,0.021933 0,0.03125 0.04765,0.095299 0.02477,-0.057155 0.0625,0.09375 0.0051,0.020211 -0.0051,0.042289 0,0.0625 0.005,0.020104 0.08042,0.1652889 0.09375,0.1875 0.01932,0.032206 0.04855,0.058878 0.0625,0.09375 0.0077,0.019343 -0.0093,0.043866 0,0.0625 0.01318,0.026352 0.04482,0.03893 0.0625,0.0625 0.02795,0.037268 0.03853,0.085054 0.0625,0.125 0.01932,0.032206 0.04855,0.058878 0.0625,0.09375 0.0077,0.019343 -0.01156,0.045166 0,0.0625 0.01292,0.01938 0.05052,0.011277 0.0625,0.03125 0.0221,0.036829 0.01204,0.086585 0.03125,0.125 0.01318,0.026352 0.04734,0.037236 0.0625,0.0625 9.45e-4,0.00158 0.06064,0.1831535 0.0625,0.1875 0.01835,0.042818 0.04415,0.082182 0.0625,0.125 0.02595,0.060554 0.03655,0.126946 0.0625,0.1875 0.01835,0.042818 0.04614,0.081381 0.0625,0.125 0.01508,0.040214 0.01945,0.083704 0.03125,0.125 0.0181,0.063346 0.04958,0.1228986 0.0625,0.1875 0.0041,0.020429 -0.0051,0.042289 0,0.0625 0.0113,0.045194 0.0512,0.079806 0.0625,0.125 0.0429,0.1715847 -0.05728,-0.052053 0.03125,0.125 0.01042,0.020833 0.01833,0.04312 0.03125,0.0625 0.0082,0.012257 0.02768,0.016959 0.03125,0.03125 0.0076,0.030317 -0.0061,0.063107 0,0.09375 0.0046,0.02284 0.0256,0.039903 0.03125,0.0625 0.0051,0.020211 -0.0051,0.042289 0,0.0625 0.0113,0.045194 0.05336,0.07932 0.0625,0.125 0.0066,0.033 0,0.1735565 0,0.21875 0,0.1666667 0,0.3333333 0,0.5 0,0.1041667 0,0.2083333 0,0.3125 0,0.020833 0,0.041667 0,0.0625 0,0.020833 0.0051,0.042289 0,0.0625 -0.0113,0.045194 -0.0512,0.079806 -0.0625,0.125 -0.03575,0.143019 0.06312,-0.032493 -0.03125,0.15625 -0.0168,0.033593 -0.0457,0.060157 -0.0625,0.09375 -0.01473,0.029463 -0.02083,0.0625 -0.03125,0.09375 -0.02705,0.081139 -0.05638,0.1752662 -0.09375,0.25 -0.0168,0.033593 -0.04771,0.059229 -0.0625,0.09375 -0.01692,0.039476 -0.01617,0.084786 -0.03125,0.125 -0.02454,0.065428 -0.0625,0.125 -0.09375,0.1875 -0.01042,0.020833 -0.0256,0.039903 -0.03125,0.0625 -0.01011,0.040423 0.01318,0.085472 0,0.125 -0.0093,0.027951 -0.04616,0.037985 -0.0625,0.0625 -0.01292,0.01938 -0.01833,0.04312 -0.03125,0.0625 -0.0082,0.012257 -0.02659,0.017275 -0.03125,0.03125 -0.0066,0.019764 0.0051,0.042289 0,0.0625 C 14.1819,9.522597 14.16667,9.541667 14.15625,9.5625 14.14583,9.583333 14.13542,9.604167 14.125,9.625 14.10417,9.666667 14.08647,9.710054 14.0625,9.75 14.04318,9.782206 14.01932,9.811544 14,9.84375 13.98802,9.863723 13.98073,9.886277 13.96875,9.90625 13.94943,9.938456 13.92557,9.967794 13.90625,10 c -0.01198,0.01997 -0.01927,0.04253 -0.03125,0.0625 -0.01932,0.03221 -0.04318,0.06154 -0.0625,0.09375 -0.01198,0.01997 -0.01833,0.04312 -0.03125,0.0625 -0.0082,0.01226 -0.02308,0.01899 -0.03125,0.03125 -0.01292,0.01938 -0.01833,0.04312 -0.03125,0.0625 -0.01798,0.02697 -0.06934,0.06934 -0.09375,0.09375 -0.01042,0.01042 -0.02466,0.01807 -0.03125,0.03125 -0.0093,0.01863 0.0093,0.04387 0,0.0625 -0.0066,0.01318 -0.02083,0.02083 -0.03125,0.03125 -0.04167,0.04167 -0.08333,0.08333 -0.125,0.125 -0.05208,0.05208 -0.104167,0.104167 -0.15625,0.15625 -0.01042,0.01042 -0.01899,0.02308 -0.03125,0.03125 -0.01938,0.01292 -0.04603,0.01478 -0.0625,0.03125 -0.01647,0.01647 -0.01833,0.04312 -0.03125,0.0625 -0.0082,0.01226 -0.02083,0.02083 -0.03125,0.03125 -0.02083,0.02083 -0.03893,0.04482 -0.0625,0.0625 -0.01863,0.01398 -0.04312,0.01833 -0.0625,0.03125 -0.02451,0.01634 -0.03615,0.04932 -0.0625,0.0625 -0.01863,0.0093 -0.04777,-0.01473 -0.0625,0 -0.0074,0.0074 0.0074,0.02388 0,0.03125 -0.0074,0.0074 -0.02193,-0.0047 -0.03125,0 -0.143019,0.07151 0.132607,-0.01295 -0.09375,0.0625 -0.0099,0.0033 -0.02193,-0.0047 -0.03125,0 -0.01318,0.0066 -0.01727,0.02659 -0.03125,0.03125 -0.01976,0.0066 -0.04274,-0.0066 -0.0625,0 -0.01398,0.0047 -0.01807,0.02466 -0.03125,0.03125 -0.0093,0.0047 -0.02114,-0.0025 -0.03125,0 -0.03196,0.008 -0.06429,0.01652 -0.09375,0.03125 -0.01318,0.0066 -0.01899,0.02308 -0.03125,0.03125 -0.02473,0.01648 -0.159911,0.08455 -0.1875,0.09375 -0.01976,0.0066 -0.04274,-0.0066 -0.0625,0 -0.135676,0.04523 0.02147,0.03125 -0.15625,0.03125 -0.08666,0 0.04988,-0.0047 -0.09375,0.03125 -0.02021,0.0051 -0.04207,-0.0041 -0.0625,0 -0.0323,0.0065 -0.06145,0.02479 -0.09375,0.03125 -0.03064,0.0061 -0.0641,-0.0099 -0.09375,0 -0.0221,0.0074 -0.0404,0.02388 -0.0625,0.03125 -0.0099,0.0033 -0.02083,0 -0.03125,0 -0.03125,0 -0.06311,-0.0061 -0.09375,0 -0.02284,0.0046 -0.0404,0.02388 -0.0625,0.03125 -0.02965,0.0099 -0.06311,-0.0061 -0.09375,0 -0.0323,0.0065 -0.06145,0.02479 -0.09375,0.03125 -0.02043,0.0041 -0.04167,0 -0.0625,0 -0.08333,0 -0.166667,0 -0.25,0 -0.02083,0 -0.04229,-0.0051 -0.0625,0 -0.0226,0.0056 -0.0404,0.02388 -0.0625,0.03125 -0.0099,0.0033 -0.02083,0 -0.03125,0 -0.02083,0 -0.04167,0 -0.0625,0 -0.05208,0 -0.104167,0 -0.15625,0 -0.02083,0 -0.04167,0 -0.0625,0 -0.01042,0 -0.02137,-0.0033 -0.03125,0 -0.0221,0.0074 -0.0399,0.0256 -0.0625,0.03125 -0.02021,0.0051 -0.04167,0 -0.0625,0 -0.05208,0 -0.104167,0 -0.15625,0 -0.2708333,0 -0.5416667,0 -0.8125,0 -0.020833,0 -0.042736,0.0066 -0.0625,0 C 9.290403,11.6801 9.272097,11.66362 9.25,11.65625 c -0.046875,-0.01563 -0.03125,0.03125 -0.09375,0 -0.00932,-0.0047 0.00737,-0.02388 0,-0.03125 -0.00737,-0.0074 -0.021933,0.0047 -0.03125,0 -0.013176,-0.0066 -0.018074,-0.02466 -0.03125,-0.03125 -0.00932,-0.0047 -0.041356,0.0025 -0.03125,0 0.051529,-0.01288 0.1041667,-0.02083 0.15625,-0.03125"
       id="path36"
       inkscape:connector-curvature="0" />
  </g>
</svg>
